<svg
      width="30"
      height="32"
      viewBox="0 0 44 48"
      fill="none"
      xmlns="http://www.w3.org/2000/svg"
    >
    <path
        d="M18.5759 44C19.256 41.0981 20.5445 38.4501 19.2202 35.5482C19.2202 38.5589 17.8243 41.1344 16.7505 43.8549H12.885C12.5271 40.8442 14.5314 38.4138 14.3167 35.4757C12.8616 37.6479 11.6378 39.9703 10.6659 42.404L7.37309 35.258C7.30151 38.4138 8.84055 40.9167 8.80476 43.8186H4.50975C4.295 42.6941 4.00866 41.4971 3.82971 40.2638C3.47179 37.8697 3.11387 35.4757 2.82754 33.0816C2.43383 29.8533 3.04229 27.4229 5.08242 23.6867C4.68871 23.3603 4.295 22.9975 3.8655 22.7073C2.88381 22.0619 2.0564 21.2028 1.44346 20.1926C0.830515 19.1824 0.447447 18.0464 0.322113 16.8673C-0.458414 11.4558 0.209076 5.93126 2.25487 0.870569C2.32439 0.706152 2.40824 0.548342 2.50541 0.399011C2.57699 0.29019 2.68437 0.253916 2.93491 0C5.76246 0.870569 8.08893 2.61171 10.2006 5.07832L7.37309 5.6587C6.40671 4.75185 5.69088 3.69992 4.295 3.22836C3.47184 5.16964 3.17528 7.29853 3.436 9.39489C9.30585 5.62242 15.0683 6.09398 20.8666 9.21352C24.031 7.85846 27.5317 7.52902 30.8883 8.2704C30.9122 8.89932 30.9002 9.52911 30.8525 10.1566C30.4981 13.8919 29.3504 17.5052 27.4881 20.7486C25.7701 23.6505 23.5868 25.972 19.9002 26.2622C20.2581 27.6043 20.5802 28.8013 20.9382 29.9983C21.0317 30.3448 21.2174 30.6585 21.475 30.9052C24.1952 33.3718 24.8753 36.4551 24.1952 39.9373C24.1538 40.1159 24.1298 40.2981 24.1236 40.4814C24.1226 40.6755 24.1345 40.8694 24.1594 41.0618C26.2353 41.0618 28.2755 40.953 30.1009 39.7922C30.9159 39.3287 31.5657 38.6163 31.9577 37.7566C32.3498 36.8968 32.464 35.9336 32.2842 35.0041C31.8904 33.1542 30.244 31.7395 28.2039 31.5218C27.7386 31.4493 27.2375 31.5218 26.7722 31.4493C26.4401 31.4041 26.1373 31.233 25.9248 30.9705C25.7122 30.7079 25.6058 30.3735 25.6269 30.0346C25.6211 29.7281 25.722 29.4293 25.9117 29.1905C26.1015 28.9518 26.3681 28.7883 26.6649 28.7288C27.9625 28.4431 29.3162 28.5829 30.5304 29.1278C31.8763 29.6445 33.0405 30.5548 33.8752 31.743C34.71 32.9313 35.1777 34.3441 35.2191 35.8021C35.2268 37.3219 34.7793 38.8082 33.9357 40.0647C33.0922 41.3211 31.8922 42.2886 30.4946 42.8392C29.3293 43.2857 28.1158 43.5901 26.8796 43.7461C25.6919 43.8908 24.4967 43.9635 23.3004 43.9637L18.5759 44ZM10.2722 15.9967C10.2722 17.2663 10.2364 18.5359 10.308 19.8054C10.3796 21.075 10.5943 21.2201 11.3818 21.474C12.1692 21.7279 12.7776 21.2564 13.2429 20.676C13.7082 20.0956 14.7462 18.5359 15.4262 17.5565L12.9208 15.634L10.2722 15.9967ZM23.4078 11.789C24.2668 13.385 25.1258 14.9085 26.0564 16.5771C27.3016 14.7491 27.9978 12.5947 28.0607 10.3743C26.2711 10.5194 24.6605 10.5556 23.4078 11.789ZM6.87201 11.1723L9.84272 11.4262C8.91214 9.90272 8.05313 9.83017 6.87201 11.1723ZM21.5108 15.5977C21.5181 15.2188 21.4081 14.8471 21.1963 14.5348C20.9844 14.2225 20.6814 13.9853 20.3297 13.8566C19.7928 13.6389 19.256 13.5664 18.7907 14.183L21.5108 15.5977ZM12.5271 11.7527L13.3503 13.6026L14.9967 12.4782L12.5271 11.7527Z"
        fill="#E3AB57"
      />
</svg>